<svg id="line" height="512" viewBox="0 0 64 64" width="512" xmlns="http://www.w3.org/2000/svg"><g fill="#c4a2fc"><path d="m51 33a12.013 12.013 0 0 0 -12 12v15a3 3 0 0 0 3 3h18a3 3 0 0 0 3-3v-15a12.013 12.013 0 0 0 -12-12z"/><path d="m25 43a12.013 12.013 0 0 0 -12 12v5a3 3 0 0 0 3 3h18a3 3 0 0 0 3-3v-5a12.013 12.013 0 0 0 -12-12z"/><circle cx="51" cy="22" r="9"/><circle cx="25" cy="32" r="9"/></g><path d="m19.569 13.773a4.5 4.5 0 1 0 -6.138 0 6.5 6.5 0 0 0 -3.431 5.727 2.5 2.5 0 0 0 2.5 2.5h8a2.5 2.5 0 0 0 2.5-2.5 6.5 6.5 0 0 0 -3.431-5.727zm-5.569-3.273a2.5 2.5 0 1 1 2.5 2.5 2.5 2.5 0 0 1 -2.5-2.5zm6.5 9.5h-8a.5.5 0 0 1 -.5-.5 4.5 4.5 0 0 1 9 0 .5.5 0 0 1 -.5.5z" fill="#151a6a"/><path d="m46.285 1h-40.565a4.726 4.726 0 0 0 -4.668 5.423l2.448 16.319a4.97 4.97 0 0 0 4.944 4.258h12.486a1 1 0 0 1 .832.445l2.574 3.861a2 2 0 0 0 3.328 0l2.574-3.862a1 1 0 0 1 .832-.444h12.486a4.97 4.97 0 0 0 4.944-4.258l2.448-16.32a4.724 4.724 0 0 0 -4.663-5.422zm2.685 5.126-2.449 16.319a2.98 2.98 0 0 1 -2.965 2.555h-12.486a3 3 0 0 0 -2.5 1.336l-2.57 3.864-2.574-3.861a3 3 0 0 0 -2.496-1.339h-12.486a2.98 2.98 0 0 1 -2.965-2.555l-2.449-16.319a2.724 2.724 0 0 1 2.69-3.126h40.565a2.722 2.722 0 0 1 2.685 3.126z" fill="#151a6a"/><path d="m38.714 7h-3.428a1 1 0 0 0 0 2h2.428v11a1 1 0 0 0 2 0v-12a1 1 0 0 0 -1-1z" fill="#151a6a"/></svg>