<?xml version="1.0" encoding="iso-8859-1"?>
<!-- Generator: Adobe Illustrator 19.0.0, SVG Export Plug-In . SVG Version: 6.00 Build 0)  -->
<svg xmlns="http://www.w3.org/2000/svg" xmlns:xlink="http://www.w3.org/1999/xlink" version="1.1" id="Layer_1" x="0px" y="0px" viewBox="0 0 492 492" style="enable-background:new 0 0 492 492;" xml:space="preserve" width="512" height="512">
<g>
	<g>
		<path style="fill:#FFC475;" d="M441.95,77.92v398.02c0,8.87-7.19,16.06-16.06,16.06H155.15c-8.87,0-16.07-7.19-16.07-16.06V77.92    c0-8.88,7.2-16.07,16.07-16.07h270.74C434.76,61.85,441.95,69.04,441.95,77.92z"/>
	</g>
	<g>
		<path style="fill:#FF8702;" d="M441.95,77.92v398.02c0,8.87-7.19,16.06-16.06,16.06H290.52V61.85h135.37    C434.76,61.85,441.95,69.04,441.95,77.92z"/>
	</g>
	<g>
		<path style="fill:#0185FF;" d="M352.92,16.06V290.4c0,2.32-0.51,4.59-1.45,6.65c-0.79,1.74-1.88,3.33-3.25,4.72L224.53,425.44    c-1.37,1.36-2.97,2.46-4.7,3.26c-2.07,0.95-4.34,1.45-6.66,1.45H66.11c-8.87,0-16.06-7.19-16.06-16.06V16.06    C50.05,7.2,57.24,0,66.11,0h270.75C345.72,0,352.92,7.2,352.92,16.06z"/>
	</g>
	<g>
		<path style="fill:#4D5BE9;" d="M352.92,16.06V290.4c0,2.32-0.51,4.59-1.45,6.65c-0.79,1.74-1.88,3.33-3.25,4.72L224.53,425.44    c-1.37,1.36-2.97,2.46-4.7,3.26c-2.07,0.95-4.34,1.45-6.66,1.45h-11.69V0h135.38C345.72,0,352.92,7.2,352.92,16.06z"/>
	</g>
	<g>
		<g>
			<path style="fill:#DBDCF6;" d="M278.8,51.11H174.93c-8.87,0-16.06,7.19-16.06,16.06v90.95c-3.68-1.01-7.55-1.56-11.55-1.56     c-24.09,0-43.68,19.59-43.68,43.68c0,24.08,19.59,43.67,43.68,43.67c24.08,0,43.67-19.59,43.67-43.67v-65.56h71.75v23.44     c-3.68-1.01-7.56-1.56-11.55-1.56c-24.09,0-43.68,19.59-43.68,43.68c0,24.08,19.59,43.67,43.68,43.67     c24.08,0,43.67-19.59,43.67-43.67V67.17C294.86,58.3,287.67,51.11,278.8,51.11z M147.32,211.79c-6.37,0-11.56-5.18-11.56-11.55     c0-6.37,5.19-11.56,11.56-11.56s11.55,5.19,11.55,11.56C158.87,206.61,153.69,211.79,147.32,211.79z M251.19,211.79     c-6.38,0-11.56-5.18-11.56-11.55c0-6.37,5.18-11.56,11.56-11.56c6.37,0,11.55,5.19,11.55,11.56     C262.74,206.61,257.56,211.79,251.19,211.79z M262.74,102.55h-71.75V83.23h71.75V102.55z"/>
		</g>
	</g>
	<g>
		<g>
			<path style="fill:#C4C7F5;" d="M278.8,51.11h-77.32v32.12h61.26v19.32h-61.26v32.13h61.26v23.44c-3.68-1.01-7.56-1.56-11.55-1.56     c-24.09,0-43.68,19.59-43.68,43.68c0,24.08,19.59,43.67,43.68,43.67c24.08,0,43.67-19.59,43.67-43.67V67.17     C294.86,58.3,287.67,51.11,278.8,51.11z M251.19,211.79c-6.38,0-11.56-5.18-11.56-11.55c0-6.37,5.18-11.56,11.56-11.56     c6.37,0,11.55,5.19,11.55,11.56C262.74,206.61,257.56,211.79,251.19,211.79z"/>
		</g>
	</g>
	<g>
		<path style="fill:#DBDCF6;" d="M351.47,297.05c-0.79,1.74-1.88,3.33-3.25,4.72L277,372.98l-52.47,52.46    c-1.37,1.36-2.97,2.46-4.7,3.26V313.12c0-8.87,7.19-16.07,16.06-16.07H351.47z"/>
	</g>
</g>















</svg>
