<svg id="Capa_1" enable-background="new 0 0 512 512" height="512" viewBox="0 0 512 512" width="512" xmlns="http://www.w3.org/2000/svg"><g><g><g><path d="m512 58.815v318.707c0 8.54-6.923 15.453-15.453 15.453h-481.094c-8.53 0-15.453-6.913-15.453-15.453v-318.707z" fill="#b5dbfd"/><g><path d="m242.577 143.238v70.403c-2.4-3.946-5.13-8.375-6.356-10.147-7.84-11.342-20.738-18.121-34.511-18.121-20.047 0-36.85 14.165-40.929 33.007-1.762-.865-3.523-1.731-5.295-2.606-42.217-20.871-78.119-1.865-101.535 18.914v-91.449c0-5.687 4.615-10.302 10.302-10.302h168.023c5.686 0 10.301 4.615 10.301 10.301z" fill="#31a7fb"/><path d="m242.577 143.238v70.403c-2.4-3.946-5.13-8.375-6.356-10.147-7.84-11.342-20.738-18.121-34.511-18.121-.391 0-.773.01-1.164.01v-42.145c0-5.687-4.605-10.302-10.302-10.302h42.031c5.687.001 10.302 4.616 10.302 10.302z" fill="#1c96f9"/><path d="m242.577 199.105v56.279c-8.952 12.97-23.921 21.469-40.867 21.469-27.392 0-49.603-22.211-49.603-49.603 0-27.403 22.211-49.603 49.603-49.603 16.946-.001 31.914 8.498 40.867 21.458z" fill="#fcb44d"/><g><path d="m259.976 294.407c0 .371-.093.134-.278-.608.186.227.278.433.278.608z"/></g><g><path d="m259.976 294.407c0 .371-.093.134-.278-.608.186.227.278.433.278.608z"/></g><path d="m242.577 199.105v56.279c-8.952 12.97-23.921 21.469-40.867 21.469-.391 0-.783 0-1.164-.021v-99.165c.381-.021.773-.021 1.164-.021 16.946 0 31.914 8.499 40.867 21.459z" fill="#fca62f"/><path d="m242.577 248.461v62.8c0 5.687-4.615 10.302-10.302 10.302h-168.023c-5.687 0-10.302-4.615-10.302-10.302v-86.875c23.416-20.779 59.318-39.786 101.535-18.914 32.647 16.122 63.068 31.142 87.092 42.989z" fill="#23f1a8"/><path d="m242.577 248.461v62.8c0 5.687-4.615 10.302-10.302 10.302h-42.031c5.697 0 10.302-4.615 10.302-10.302v-83.548c15.349 7.582 29.555 14.598 42.031 20.748z" fill="#26d192"/></g><path d="m512 58.815v318.707c0 8.54-6.923 15.453-15.453 15.453h-44.061c8.54 0 15.453-6.913 15.453-15.453v-318.707z" fill="#8dcafc"/><g><path d="m473.089 241.502h-120.513c-4.267 0-7.726-3.459-7.726-7.726s3.459-7.726 7.726-7.726h120.513c4.267 0 7.726 3.459 7.726 7.726s-3.459 7.726-7.726 7.726z" fill="#7fc0e5"/></g><g><path d="m473.089 270.589h-85.489c-4.267 0-7.726-3.459-7.726-7.726s3.459-7.726 7.726-7.726h85.489c4.267 0 7.726 3.459 7.726 7.726s-3.459 7.726-7.726 7.726z" fill="#7fc0e5"/></g><g><path d="m473.089 299.677h-67.513c-4.267 0-7.726-3.459-7.726-7.726s3.459-7.726 7.726-7.726h67.513c4.267 0 7.726 3.459 7.726 7.726s-3.459 7.726-7.726 7.726z" fill="#7fc0e5"/></g><path d="m158.565 4.185v64.932h-158.565v-49.48c0-8.53 6.923-15.453 15.453-15.453h143.112z" fill="#eef4f5"/><path d="m496.547 4.186h-348.284v64.932h363.737v-49.479c0-8.534-6.918-15.453-15.453-15.453z" fill="#cbe5e7"/><path d="m512 19.64v49.48h-44.061v-49.48c0-8.54-6.912-15.453-15.453-15.453h44.061c8.53.001 15.453 6.913 15.453 15.453z" fill="#a9d3d8"/><g><g id="XMLID_587_"><path d="m46.96 44.379h-.107c-4.267 0-7.726-3.459-7.726-7.726s3.459-7.726 7.726-7.726h.107c4.267 0 7.726 3.459 7.726 7.726s-3.459 7.726-7.726 7.726z" fill="#fb6a3b"/></g><g id="XMLID_585_"><path d="m73.844 44.379h-.107c-4.267 0-7.726-3.459-7.726-7.726s3.459-7.726 7.726-7.726h.107c4.267 0 7.726 3.459 7.726 7.726s-3.459 7.726-7.726 7.726z" fill="#fdd330"/></g><g id="XMLID_333_"><path d="m100.728 44.379h-.107c-4.267 0-7.726-3.459-7.726-7.726s3.459-7.726 7.726-7.726h.107c4.267 0 7.726 3.459 7.726 7.726s-3.459 7.726-7.726 7.726z" fill="#27e19d"/></g></g></g><g><g><g><g><g><g><g><g><path d="m475.938 495.494-9.304 9.304c-4.023 4.023-10.546 4.023-14.569 0l-40.771-40.771 23.873-23.872 40.771 40.771c4.023 4.023 4.023 10.545 0 14.568z" fill="#557983"/><path d="m456.507 461.5c-2.381 5.079-5.666 9.83-9.853 14.017-4.142 4.131-8.86 7.449-13.995 9.875l-21.365-21.365 23.87-23.87z" fill="#3f5959"/></g><g><path d="m430.691 459.552c-10.713 10.713-28.082 10.713-38.795 0l-19.398-19.398 38.795-38.796 19.398 19.398c10.713 10.714 10.713 28.083 0 38.796z" fill="#fcb44d"/><path d="m435.165 426.626c-10.112 14.593-22.798 27.278-37.391 37.391-2.111-1.185-4.086-2.675-5.88-4.469l-19.401-19.389 38.802-38.802 19.401 19.401c1.794 1.794 3.284 3.769 4.469 5.868z" fill="#fca62f"/></g><g><circle cx="314.085" cy="342.946" fill="#a9d3d8" r="124.66"/><path d="m438.742 342.951c0 68.845-55.81 124.655-124.655 124.655-6.964 0-13.803-.576-20.45-1.67 59.117-9.762 104.205-61.103 104.205-122.985 0-61.893-45.088-113.234-104.205-122.996 6.648-1.095 13.487-1.67 20.45-1.67 68.846 0 124.655 55.809 124.655 124.666z" fill="#90bac4"/><g><path d="m401.266 342.949c0 48.552-39.363 87.926-87.926 87.926s-87.926-39.373-87.926-87.926c0-1.422.031-2.833.103-4.234h27.877c7.355 0 13.31-5.954 13.31-13.3v-57.01c13.516-8.489 29.504-13.382 46.636-13.382 48.563 0 87.926 39.364 87.926 87.926z" fill="#d9ecfd"/><path d="m277.005 262.863v72.854c0 7.345-5.954 13.3-13.31 13.3h-38.065c-.144-2.009-.216-4.028-.216-6.068 0-35.603 21.16-66.271 51.591-80.086z" fill="#27e19d"/><path d="m401.261 342.951c0 48.553-39.366 87.919-87.919 87.919-6.456 0-12.753-.7-18.814-2.02 39.513-8.611 69.105-43.801 69.105-85.899 0-42.108-29.592-77.299-69.105-85.91 6.061-1.321 12.358-2.02 18.814-2.02 48.553 0 87.919 39.366 87.919 87.93z" fill="#b5dbfd"/></g></g></g></g></g></g></g></g></g></g><g><path d="m462.787 186.153h-157.957c-5.69 0-10.302-4.612-10.302-10.302v-32.612c0-5.69 4.612-10.302 10.302-10.302h157.957c5.69 0 10.302 4.612 10.302 10.302v32.612c0 5.689-4.612 10.302-10.302 10.302z" fill="#fcb44d"/><path d="m473.09 143.238v32.616c0 5.687-4.615 10.302-10.302 10.302h-35.912c5.687 0 10.302-4.615 10.302-10.302v-32.616c0-5.687-4.615-10.302-10.302-10.302h35.912c5.687.001 10.302 4.616 10.302 10.302z" fill="#fca62f"/></g><g><path d="m100.026 264.972h-8.961c-4.267 0-7.726-3.459-7.726-7.726s3.459-7.726 7.726-7.726h8.961c4.267 0 7.726 3.459 7.726 7.726.001 4.266-3.459 7.726-7.726 7.726z" fill="#26d192"/></g><g><path d="m121.412 292.238h-8.96c-4.267 0-7.726-3.459-7.726-7.726s3.459-7.726 7.726-7.726h8.96c4.267 0 7.726 3.459 7.726 7.726 0 4.266-3.459 7.726-7.726 7.726z" fill="#1ec186"/></g><g><path d="m165.944 256.187h-8.96c-4.267 0-7.726-3.459-7.726-7.726s3.459-7.726 7.726-7.726h8.96c4.267 0 7.726 3.459 7.726 7.726s-3.459 7.726-7.726 7.726z" fill="#26d192"/></g></g></svg>