<svg id="flat" height="512" viewBox="0 0 512 512" width="512" xmlns="http://www.w3.org/2000/svg"><path d="m24 72h464v400a16 16 0 0 1 -16 16h-432a16 16 0 0 1 -16-16z" fill="#548aff"/><path d="m24 72v-32a16 16 0 0 1 16-16h432a16 16 0 0 1 16 16v32z" fill="#7dafff"/><circle cx="48" cy="48" fill="#f5714f" r="8"/><circle cx="72" cy="48" fill="#ffc431" r="8"/><circle cx="96" cy="48" fill="#3cde8d" r="8"/><circle cx="88" cy="128" fill="#ffc431" r="24"/><g fill="#4976f2"><path d="m136 104h48v16h-48z"/><path d="m200 104h64v16h-64z"/><path d="m136 136h24v16h-24z"/><path d="m176 136h48v16h-48z"/></g><path d="m64 184h384v208h-384z" fill="#a6cfff"/><path d="m368 432h32v16h-32z" fill="#4976f2"/><path d="m416 432h32v16h-32z" fill="#4976f2"/><path d="m72 435.31371a11.31369 11.31369 0 0 1 11.3137-11.31371h9.3726a11.31369 11.31369 0 0 1 11.3137 11.3137 11.31372 11.31372 0 0 1 -3.31371 8l-12.68629 12.6863-12.68629-12.68629a11.31372 11.31372 0 0 1 -3.31371-8z" fill="#fa8669"/><circle cx="144" cy="440" fill="#91c0ff" r="16"/><path d="m233.88853 240h60.22294a75.77707 75.77707 0 0 1 33.88853 8v16l-8 8v72h-88z" fill="#ffc431"/><path d="m280 344 35.70847-29.75706a44.19275 44.19275 0 0 1 28.29153-10.24294 44.19275 44.19275 0 0 1 28.29151 10.24294l35.70849 29.75706z" fill="#ffe28f"/><path d="m200 344v-72l-8-8v-16a75.77707 75.77707 0 0 1 33.88851-8h12.22294a75.77707 75.77707 0 0 1 33.88855 8v16l-8 8v72z" fill="#ffd873"/><path d="m224 320v24h-112v-24a23.99928 23.99928 0 0 1 16.10986-22.66 23.72477 23.72477 0 0 1 7.89014-1.34h64a24.00619 24.00619 0 0 1 24 24z" fill="#ffa100"/><path d="m152 296v16a8.01063 8.01063 0 0 1 -6.15991 7.79 8.3205 8.3205 0 0 1 -1.84009.21 8.01621 8.01621 0 0 1 -7.15991-4.42l-8-16a7.94492 7.94492 0 0 1 -.73023-2.24 23.72477 23.72477 0 0 1 7.89014-1.34z" fill="#f78e00"/><path d="m176 296v16a8.01063 8.01063 0 0 1 -6.15991 7.79 8.3205 8.3205 0 0 1 -1.84009.21 8.01621 8.01621 0 0 1 -7.15991-4.42l-8-16a8.03 8.03 0 0 1 -.84009-3.57v-.01z" fill="#f78e00"/><path d="m200 296v16a8.01063 8.01063 0 0 1 -6.15991 7.79 8.3205 8.3205 0 0 1 -1.84009.21 8.01621 8.01621 0 0 1 -7.15991-4.42l-8-16a8.03 8.03 0 0 1 -.84009-3.57v-.01z" fill="#f78e00"/><rect fill="#91c0ff" height="16" rx="8" width="336" x="88" y="336"/></svg>